<?xml version="1.0" encoding="UTF-8"?>
<svg width="17px" height="16px" viewBox="0 0 17 16" version="1.1" xmlns="http://www.w3.org/2000/svg" xmlns:xlink="http://www.w3.org/1999/xlink">
    <!-- Generator: Sketch 54.1 (76490) - https://sketchapp.com -->
    <title>Instagram</title>
    <desc>Created with Sketch.</desc>
    <g id="Page-1" stroke="none" stroke-width="1" fill="none" fill-rule="evenodd">
        <g id="main" transform="translate(-1583.000000, -556.000000)" fill="#000000">
            <g id="编组-12" transform="translate(1282.000000, 552.000000)">
                <g id="Social" transform="translate(199.000000, 4.000000)">
                    <path d="M113.935608,0 L107.064392,0 C104.271874,0 102,2.13823466 102,4.76648628 L102,11.2335137 C102,13.8617653 104.271874,16 107.064392,16 L113.935608,16 C116.728126,16 119,13.8617653 119,11.2335137 L119,4.76648628 C118.999969,2.13823466 116.728095,0 113.935608,0 Z M117.289801,11.2335137 C117.289801,12.9769996 115.788062,14.3904006 113.935608,14.3904006 L107.064392,14.3904006 C105.211938,14.3904006 103.710199,12.9769996 103.710199,11.2335137 L103.710199,4.76648628 C103.710199,3.02297136 105.211938,1.60959941 107.064392,1.60959941 L113.935608,1.60959941 C115.788062,1.60959941 117.289801,3.02297136 117.289801,4.76648628 L117.289801,11.2335137 Z M110.5,3.86183067 C108.075598,3.86183067 106.103195,5.71820977 106.103195,7.99997096 C106.103195,10.2817322 108.075598,12.1381403 110.5,12.1381403 C112.924402,12.1381403 114.896805,10.2817612 114.896805,7.99997096 C114.896805,5.71818073 112.924402,3.86183067 110.5,3.86183067 Z M110.5,10.5285699 C109.016217,10.5285699 107.813394,9.39650185 107.813394,8 C107.813394,6.60349815 109.016248,5.47143008 110.5,5.47143008 C111.983783,5.47143008 113.186606,6.60349815 113.186606,8 C113.186606,9.39647281 111.983752,10.5285699 110.5,10.5285699 Z M114.90532,4.88448989 C115.487188,4.88448989 115.958885,4.44053976 115.958885,3.89289953 C115.958885,3.3452593 115.487188,2.90130918 114.90532,2.90130918 C114.323452,2.90130918 113.851755,3.3452593 113.851755,3.89289953 C113.851755,4.44053976 114.323452,4.88448989 114.90532,4.88448989 Z" id="Instagram"></path>
                </g>
            </g>
        </g>
    </g>
</svg>