<?xml version="1.0" encoding="UTF-8"?>
<svg width="306px" height="52px" viewBox="0 0 306 52" version="1.1" xmlns="http://www.w3.org/2000/svg" xmlns:xlink="http://www.w3.org/1999/xlink">
    <!-- Generator: Sketch 54.1 (76490) - https://sketchapp.com -->
    <title>编组 5</title>
    <desc>Created with Sketch.</desc>
    <g id="Page-1" stroke="none" stroke-width="1" fill="none" fill-rule="evenodd">
        <g id="main" transform="translate(-320.000000, -51.000000)" fill="#000000">
            <g id="编组-5" transform="translate(320.000000, 50.000000)">
                <text id="JavaScript-Hub" font-family="AlibabaSans-Heavy, Alibaba Sans" font-size="32" font-weight="600">
                    <tspan x="76" y="38">JavaScript Hub</tspan>
                </text>
                <g id="js" transform="translate(0.000000, 1.000000)" fill-rule="nonzero">
                    <path d="M2,0 L50,0 C51.1045695,-2.02906125e-16 52,0.8954305 52,2 L52,50 C52,51.1045695 51.1045695,52 50,52 L2,52 C0.8954305,52 1.3527075e-16,51.1045695 0,50 L0,2 C-1.3527075e-16,0.8954305 0.8954305,2.02906125e-16 2,0 Z M28.2982143,40.5553571 L28.2982143,23.8758929 L23.4116071,23.8758929 L23.4116071,40.4857143 C23.4116071,42.9348214 22.3901786,43.5616071 20.7883929,43.5616071 C19.1053571,43.5616071 18.4089286,42.4125 17.6428571,41.0544643 L13.6616071,43.4571429 C14.8223214,45.90625 17.0857143,47.9258929 20.9973214,47.9258929 C25.3267857,47.9258929 28.2982143,45.6160714 28.2982143,40.5553571 Z M39.8589286,47.9258929 C44.4901786,47.9258929 47.9491071,45.5116071 47.9491071,41.1241071 C47.9491071,37.0383929 45.6160714,35.2160714 41.4607143,33.4401786 L40.2419643,32.9178571 C38.1410714,32.0008929 37.2357143,31.4089286 37.2357143,29.9464286 C37.2357143,28.7625 38.1410714,27.8571429 39.56875,27.8571429 C40.9732143,27.8571429 41.8785714,28.4491071 42.7142857,29.9464286 L46.5214286,27.5089286 C44.9196429,24.6767857 42.6910714,23.5973214 39.5803571,23.5973214 C35.2276786,23.5973214 32.4303571,26.3830357 32.4303571,30.0508929 C32.4303571,34.0321429 34.7633929,35.9241071 38.2919643,37.4214286 L39.5107143,37.94375 C41.7508929,38.9303571 43.0741071,39.5223214 43.0741071,41.19375 C43.0741071,42.5982143 41.7741071,43.6080357 39.7544643,43.6080357 C37.3517857,43.6080357 35.9821429,42.3428571 34.9375,40.6366071 L30.95625,42.9348214 C32.3839286,45.7669643 35.3205357,47.9258929 39.8589286,47.9258929 Z" id="形状"></path>
                </g>
            </g>
        </g>
    </g>
</svg>