<?xml version="1.0" encoding="UTF-8"?>
<svg width="653px" height="288px" viewBox="0 0 653 288" version="1.1" xmlns="http://www.w3.org/2000/svg" xmlns:xlink="http://www.w3.org/1999/xlink">
    <defs>
        <rect id="path-1" x="0" y="0" width="298" height="288"></rect>
        <polygon id="path-3" points="0 0.821333333 202.146402 0.821333333 202.146402 59.9996667 0 59.9996667"></polygon>
    </defs>
    <g id="Page-1" stroke="none" stroke-width="1" fill="none" fill-rule="evenodd">
        <g id="编组-15">
            <rect id="矩形" fill="#F1ECE7" x="0" y="0" width="653" height="288" rx="6"></rect>
            <g id="编组-14" transform="translate(327.000000, 110.000000)" fill="#000000" fill-rule="nonzero">
                <path d="M0.3,0.72 L12,0.72 L12,2.72 L7.32,2.72 L7.32,15 L4.98,15 L4.98,2.72 L0.3,2.72 L0.3,0.72 Z M13.5,0.44 L15.78,0.44 L15.78,6.04 C16.16,5.46 16.64,5.04 17.2,4.76 C17.7,4.5 18.28,4.38 18.94,4.38 C20.2,4.38 21.14,4.74 21.76,5.48 C22.34,6.18 22.64,7.22 22.64,8.6 L22.64,15 L20.36,15 L20.36,9 C20.36,8.12 20.18,7.44 19.84,6.98 C19.44,6.48 18.86,6.24 18.08,6.24 C17.36,6.24 16.8,6.52 16.4,7.08 C15.98,7.64 15.78,8.34 15.78,9.22 L15.78,15 L13.5,15 L13.5,0.44 Z M29.74,4.38 C31.26,4.38 32.4,4.76 33.12,5.52 C33.76,6.18 34.08,7.14 34.08,8.4 L34.08,15 L31.96,15 L31.96,13.64 C31.56,14.16 31.06,14.54 30.48,14.82 C29.82,15.12 29.04,15.28 28.14,15.28 C27.06,15.28 26.22,15 25.6,14.46 C24.96,13.9 24.64,13.2 24.64,12.34 C24.64,11.18 25.08,10.28 26,9.66 C26.84,9.06 28.02,8.74 29.54,8.7 L31.8,8.64 L31.8,8.24 C31.8,6.88 31.06,6.22 29.58,6.22 C28.94,6.22 28.44,6.32 28.06,6.56 C27.62,6.82 27.32,7.22 27.2,7.76 L24.94,7.58 C25.16,6.44 25.72,5.6 26.62,5.08 C27.38,4.6 28.42,4.38 29.74,4.38 Z M31.8,10.28 L29.7,10.34 C27.88,10.38 26.98,11.02 26.98,12.26 C26.98,12.62 27.12,12.92 27.44,13.16 C27.76,13.4 28.16,13.54 28.66,13.54 C29.54,13.54 30.28,13.28 30.88,12.78 C31.48,12.26 31.8,11.6 31.8,10.8 L31.8,10.28 Z M41.82,4.38 C44.4,4.38 45.7,5.78 45.7,8.62 L45.7,15 L43.42,15 L43.42,8.82 C43.42,7.12 42.64,6.28 41.08,6.28 C40.52,6.28 40.02,6.48 39.6,6.88 C39.12,7.32 38.84,7.96 38.76,8.78 L38.76,15 L36.48,15 L36.48,4.66 L38.76,4.66 L38.76,5.86 C39.16,5.38 39.62,5 40.12,4.76 C40.64,4.5 41.2,4.38 41.82,4.38 Z M48.1,0.44 L50.38,0.44 L50.38,8.76 L54.62,4.66 L57.56,4.66 L52.98,8.94 L57.96,15 L55.04,15 L51.42,10.4 L50.38,11.38 L50.38,15 L48.1,15 L48.1,0.44 Z M63.06,4.38 C65.78,4.38 67.28,5.46 67.52,7.66 L65.3,7.66 C65.14,7.14 64.9,6.76 64.58,6.56 C64.24,6.34 63.72,6.24 63.02,6.24 C62.42,6.24 61.96,6.32 61.66,6.5 C61.3,6.68 61.14,6.96 61.14,7.36 C61.14,7.68 61.4,7.98 61.96,8.22 C62.3,8.36 62.98,8.56 64.02,8.82 C65.18,9.1 66.06,9.42 66.62,9.8 C67.44,10.32 67.86,11.06 67.86,11.98 C67.86,14.18 66.3,15.28 63.2,15.28 C60.32,15.28 58.78,14.06 58.56,11.64 L60.78,11.64 C60.9,12.3 61.14,12.76 61.48,13.04 C61.82,13.28 62.36,13.42 63.12,13.42 C64.72,13.42 65.52,12.98 65.52,12.14 C65.52,11.66 65.22,11.28 64.62,11 C64.3,10.84 63.62,10.66 62.58,10.42 C61.36,10.14 60.5,9.84 60,9.52 C59.2,9.02 58.8,8.32 58.8,7.42 C58.8,6.46 59.18,5.72 59.98,5.2 C60.76,4.64 61.78,4.38 63.06,4.38 Z M80.38,0.72 L82.58,0.72 L82.58,2.64 L80.7,2.64 C80.4,2.64 80.18,2.72 80.02,2.88 C79.86,3.04 79.8,3.28 79.8,3.62 L79.8,4.66 L82.44,4.66 L82.44,6.52 L79.8,6.52 L79.8,15 L77.52,15 L77.52,6.52 L75.22,6.52 L75.22,4.66 L77.52,4.66 L77.52,3.56 C77.52,2.68 77.76,1.98 78.26,1.48 C78.74,0.96 79.46,0.72 80.38,0.72 Z M88.68,4.38 C90.24,4.38 91.5,4.88 92.46,5.92 C93.4,6.94 93.88,8.24 93.88,9.84 C93.88,11.42 93.4,12.72 92.48,13.72 C91.52,14.76 90.24,15.28 88.68,15.28 C87.1,15.28 85.84,14.76 84.88,13.72 C83.94,12.72 83.48,11.42 83.48,9.84 C83.48,8.24 83.94,6.94 84.9,5.92 C85.84,4.88 87.1,4.38 88.68,4.38 Z M88.68,6.24 C87.72,6.24 87,6.6 86.48,7.36 C86.04,8 85.82,8.84 85.82,9.84 C85.82,10.84 86.04,11.66 86.48,12.3 C87,13.04 87.72,13.42 88.68,13.42 C89.62,13.42 90.36,13.04 90.88,12.3 C91.32,11.64 91.56,10.82 91.56,9.84 C91.56,8.84 91.32,8 90.88,7.36 C90.36,6.6 89.62,6.24 88.68,6.24 Z M100.76,4.38 C101.26,4.38 101.7,4.46 102.06,4.64 L102.06,6.92 C101.54,6.76 101.06,6.7 100.58,6.7 C99.98,6.7 99.44,6.92 98.96,7.4 C98.4,7.94 98.14,8.64 98.14,9.52 L98.14,15 L95.88,15 L95.88,4.66 L98.14,4.66 L98.14,6.14 C98.42,5.62 98.74,5.22 99.12,4.94 C99.58,4.56 100.12,4.38 100.76,4.38 Z M110.02,4.66 L112.3,4.66 L112.3,10.96 C112.3,11.8 112.46,12.4 112.82,12.8 C113.18,13.18 113.74,13.38 114.54,13.38 C115.04,13.38 115.52,13.16 115.98,12.74 C116.44,12.3 116.78,11.72 116.98,10.98 L116.98,4.66 L119.26,4.66 L119.26,15 L116.98,15 L116.98,13.66 C116.1,14.74 115.02,15.28 113.74,15.28 C111.26,15.28 110.02,13.88 110.02,11.1 L110.02,4.66 Z M125.56,4.38 C128.28,4.38 129.78,5.46 130.02,7.66 L127.8,7.66 C127.64,7.14 127.4,6.76 127.08,6.56 C126.74,6.34 126.22,6.24 125.52,6.24 C124.92,6.24 124.46,6.32 124.16,6.5 C123.8,6.68 123.64,6.96 123.64,7.36 C123.64,7.68 123.9,7.98 124.46,8.22 C124.8,8.36 125.48,8.56 126.52,8.82 C127.68,9.1 128.56,9.42 129.12,9.8 C129.94,10.32 130.36,11.06 130.36,11.98 C130.36,14.18 128.8,15.28 125.7,15.28 C122.82,15.28 121.28,14.06 121.06,11.64 L123.28,11.64 C123.4,12.3 123.64,12.76 123.98,13.04 C124.32,13.28 124.86,13.42 125.62,13.42 C127.22,13.42 128.02,12.98 128.02,12.14 C128.02,11.66 127.72,11.28 127.12,11 C126.8,10.84 126.12,10.66 125.08,10.42 C123.86,10.14 123,9.84 122.5,9.52 C121.7,9.02 121.3,8.32 121.3,7.42 C121.3,6.46 121.68,5.72 122.48,5.2 C123.26,4.64 124.28,4.38 125.56,4.38 Z M133.7,0.44 C134.14,0.44 134.52,0.58 134.82,0.86 C135.1,1.14 135.26,1.5 135.26,1.94 C135.26,2.38 135.1,2.76 134.8,3.04 C134.5,3.32 134.14,3.46 133.7,3.46 C133.26,3.46 132.9,3.32 132.6,3.04 C132.3,2.74 132.16,2.38 132.16,1.94 C132.16,1.5 132.3,1.14 132.6,0.86 C132.9,0.58 133.26,0.44 133.7,0.44 Z M132.56,4.66 L134.84,4.66 L134.84,15 L132.56,15 L132.56,4.66 Z M143,4.38 C145.58,4.38 146.88,5.78 146.88,8.62 L146.88,15 L144.6,15 L144.6,8.82 C144.6,7.12 143.82,6.28 142.26,6.28 C141.7,6.28 141.2,6.48 140.78,6.88 C140.3,7.32 140.02,7.96 139.94,8.78 L139.94,15 L137.66,15 L137.66,4.66 L139.94,4.66 L139.94,5.86 C140.34,5.38 140.8,5 141.3,4.76 C141.82,4.5 142.38,4.38 143,4.38 Z M153.58,4.38 C154.86,4.38 155.88,4.88 156.64,5.92 L156.64,4.66 L158.92,4.66 L158.92,14.34 C158.92,17.6 157.3,19.24 154.06,19.24 C152.6,19.24 151.5,18.96 150.74,18.44 C149.98,17.88 149.5,17.04 149.3,15.88 L151.58,15.88 C151.7,16.46 151.94,16.86 152.32,17.1 C152.68,17.32 153.26,17.44 154.06,17.44 C155.78,17.44 156.64,16.52 156.64,14.68 L156.64,13.16 C155.88,14.22 154.86,14.76 153.58,14.76 C152.18,14.76 151.04,14.28 150.18,13.36 C149.3,12.42 148.88,11.16 148.88,9.6 C148.88,8.04 149.3,6.78 150.18,5.82 C151.04,4.86 152.18,4.38 153.58,4.38 Z M153.94,6.22 C153.08,6.22 152.42,6.52 151.94,7.12 C151.46,7.7 151.22,8.52 151.22,9.6 C151.22,10.58 151.4,11.34 151.78,11.9 C152.22,12.56 152.92,12.9 153.92,12.9 C154.8,12.9 155.48,12.6 155.96,12.04 C156.42,11.44 156.66,10.64 156.66,9.6 C156.66,8.54 156.42,7.72 155.96,7.12 C155.48,6.52 154.8,6.22 153.94,6.22 Z M173.8,0.72 L176.14,0.72 L176.14,10.38 C176.14,12.02 175.8,13.22 175.12,14.02 C174.36,14.86 173.16,15.28 171.5,15.28 C170.06,15.28 168.96,14.88 168.22,14.08 C167.46,13.28 167.08,12.18 167.08,10.78 L167.08,10.32 L169.42,10.32 L169.42,10.76 C169.42,12.4 170.12,13.22 171.54,13.22 C172.32,13.22 172.9,12.98 173.26,12.52 C173.62,12.06 173.8,11.32 173.8,10.3 L173.8,0.72 Z M183.44,4.38 C184.96,4.38 186.1,4.76 186.82,5.52 C187.46,6.18 187.78,7.14 187.78,8.4 L187.78,15 L185.66,15 L185.66,13.64 C185.26,14.16 184.76,14.54 184.18,14.82 C183.52,15.12 182.74,15.28 181.84,15.28 C180.76,15.28 179.92,15 179.3,14.46 C178.66,13.9 178.34,13.2 178.34,12.34 C178.34,11.18 178.78,10.28 179.7,9.66 C180.54,9.06 181.72,8.74 183.24,8.7 L185.5,8.64 L185.5,8.24 C185.5,6.88 184.76,6.22 183.28,6.22 C182.64,6.22 182.14,6.32 181.76,6.56 C181.32,6.82 181.02,7.22 180.9,7.76 L178.64,7.58 C178.86,6.44 179.42,5.6 180.32,5.08 C181.08,4.6 182.12,4.38 183.44,4.38 Z M185.5,10.28 L183.4,10.34 C181.58,10.38 180.68,11.02 180.68,12.26 C180.68,12.62 180.82,12.92 181.14,13.16 C181.46,13.4 181.86,13.54 182.36,13.54 C183.24,13.54 183.98,13.28 184.58,12.78 C185.18,12.26 185.5,11.6 185.5,10.8 L185.5,10.28 Z M189.08,4.66 L191.56,4.66 L194.04,12.16 L196.52,4.66 L199,4.66 L195.18,15 L192.9,15 L189.08,4.66 Z M205,4.38 C206.52,4.38 207.66,4.76 208.38,5.52 C209.02,6.18 209.34,7.14 209.34,8.4 L209.34,15 L207.22,15 L207.22,13.64 C206.82,14.16 206.32,14.54 205.74,14.82 C205.08,15.12 204.3,15.28 203.4,15.28 C202.32,15.28 201.48,15 200.86,14.46 C200.22,13.9 199.9,13.2 199.9,12.34 C199.9,11.18 200.34,10.28 201.26,9.66 C202.1,9.06 203.28,8.74 204.8,8.7 L207.06,8.64 L207.06,8.24 C207.06,6.88 206.32,6.22 204.84,6.22 C204.2,6.22 203.7,6.32 203.32,6.56 C202.88,6.82 202.58,7.22 202.46,7.76 L200.2,7.58 C200.42,6.44 200.98,5.6 201.88,5.08 C202.64,4.6 203.68,4.38 205,4.38 Z M207.06,10.28 L204.96,10.34 C203.14,10.38 202.24,11.02 202.24,12.26 C202.24,12.62 202.38,12.92 202.7,13.16 C203.02,13.4 203.42,13.54 203.92,13.54 C204.8,13.54 205.54,13.28 206.14,12.78 C206.74,12.26 207.06,11.6 207.06,10.8 L207.06,10.28 Z M216.98,0.44 C218.66,0.44 219.98,0.78 220.92,1.48 C221.92,2.22 222.5,3.38 222.64,4.94 L220.32,4.94 C220.12,4.06 219.74,3.42 219.22,3.04 C218.7,2.64 217.9,2.46 216.86,2.46 C215.96,2.46 215.28,2.58 214.8,2.84 C214.2,3.14 213.92,3.64 213.92,4.32 C213.92,4.92 214.24,5.42 214.92,5.78 C215.22,5.94 216.04,6.24 217.36,6.66 C219.3,7.26 220.54,7.74 221.1,8.06 C222.34,8.8 222.96,9.82 222.96,11.14 C222.96,12.42 222.46,13.44 221.46,14.18 C220.46,14.9 219.04,15.28 217.22,15.28 C215.46,15.28 214.08,14.94 213.1,14.26 C211.9,13.42 211.24,12.1 211.14,10.28 L213.46,10.28 C213.62,11.36 214,12.14 214.62,12.6 C215.18,13 216.04,13.22 217.22,13.22 C218.26,13.22 219.1,13.04 219.7,12.7 C220.3,12.34 220.62,11.88 220.62,11.28 C220.62,10.52 220.16,9.92 219.28,9.48 C219,9.34 218.08,9.02 216.5,8.54 C214.74,7.98 213.64,7.58 213.22,7.34 C212.12,6.68 211.58,5.72 211.58,4.46 C211.58,3.2 212.1,2.2 213.18,1.48 C214.18,0.78 215.44,0.44 216.98,0.44 Z M229.4,4.38 C230.74,4.38 231.8,4.68 232.6,5.28 C233.42,5.92 233.94,6.88 234.14,8.18 L231.88,8.18 C231.74,7.52 231.46,7.04 231.06,6.72 C230.64,6.4 230.08,6.24 229.4,6.24 C228.56,6.24 227.9,6.54 227.42,7.18 C226.94,7.8 226.7,8.68 226.7,9.8 C226.7,10.94 226.92,11.84 227.4,12.48 C227.84,13.1 228.5,13.42 229.38,13.42 C230.9,13.42 231.74,12.66 231.92,11.16 L234.18,11.16 C233.94,12.56 233.4,13.6 232.58,14.28 C231.78,14.94 230.7,15.28 229.36,15.28 C227.76,15.28 226.52,14.76 225.64,13.72 C224.78,12.72 224.36,11.42 224.36,9.82 C224.36,8.26 224.78,6.98 225.62,6 C226.52,4.92 227.78,4.38 229.4,4.38 Z M240.86,4.38 C241.36,4.38 241.8,4.46 242.16,4.64 L242.16,6.92 C241.64,6.76 241.16,6.7 240.68,6.7 C240.08,6.7 239.54,6.92 239.06,7.4 C238.5,7.94 238.24,8.64 238.24,9.52 L238.24,15 L235.98,15 L235.98,4.66 L238.24,4.66 L238.24,6.14 C238.52,5.62 238.84,5.22 239.22,4.94 C239.68,4.56 240.22,4.38 240.86,4.38 Z M245,0.44 C245.44,0.44 245.82,0.58 246.12,0.86 C246.4,1.14 246.56,1.5 246.56,1.94 C246.56,2.38 246.4,2.76 246.1,3.04 C245.8,3.32 245.44,3.46 245,3.46 C244.56,3.46 244.2,3.32 243.9,3.04 C243.6,2.74 243.46,2.38 243.46,1.94 C243.46,1.5 243.6,1.14 243.9,0.86 C244.2,0.58 244.56,0.44 245,0.44 Z M243.86,4.66 L246.14,4.66 L246.14,15 L243.86,15 L243.86,4.66 Z M254.2,4.38 C255.72,4.38 256.92,4.92 257.8,6 C258.6,7 259,8.28 259,9.88 C259,11.4 258.6,12.66 257.82,13.66 C256.98,14.74 255.8,15.28 254.32,15.28 C253.12,15.28 252.08,14.7 251.24,13.58 L251.24,18.96 L248.96,18.96 L248.96,4.66 L251.08,4.66 L251.08,5.76 C251.8,4.84 252.84,4.38 254.2,4.38 Z M253.86,6.22 C252.96,6.22 252.28,6.56 251.8,7.28 C251.36,7.9 251.16,8.72 251.16,9.76 L251.16,9.92 C251.16,11 251.42,11.88 251.96,12.54 C252.44,13.14 253.04,13.44 253.78,13.44 C254.78,13.44 255.54,13.1 256.02,12.46 C256.44,11.86 256.66,11 256.66,9.88 C256.66,8.76 256.46,7.9 256.08,7.3 C255.6,6.58 254.86,6.22 253.86,6.22 Z M264.24,1.32 L264.24,4.66 L266.54,4.66 L266.54,6.54 L264.24,6.54 L264.24,12.38 C264.24,12.62 264.28,12.8 264.4,12.94 C264.52,13.06 264.68,13.12 264.92,13.12 L266.28,13.12 L266.28,15 L264.54,15 C263.64,15 262.98,14.76 262.56,14.28 C262.16,13.84 261.96,13.22 261.96,12.38 L261.96,6.54 L260.1,6.54 L260.1,4.66 L261.96,4.66 L261.96,2.26 L264.24,1.32 Z M1.4,28.72 L3.74,28.72 L3.74,34.68 L10.98,34.68 L10.98,28.72 L13.32,28.72 L13.32,43 L10.98,43 L10.98,36.68 L3.74,36.68 L3.74,43 L1.4,43 L1.4,28.72 Z M15.92,32.66 L18.2,32.66 L18.2,38.96 C18.2,39.8 18.36,40.4 18.72,40.8 C19.08,41.18 19.64,41.38 20.44,41.38 C20.94,41.38 21.42,41.16 21.88,40.74 C22.34,40.3 22.68,39.72 22.88,38.98 L22.88,32.66 L25.16,32.66 L25.16,43 L22.88,43 L22.88,41.66 C22,42.74 20.92,43.28 19.64,43.28 C17.16,43.28 15.92,41.88 15.92,39.1 L15.92,32.66 Z M27.56,28.44 L29.84,28.44 L29.84,34.08 C30.68,32.94 31.72,32.38 32.92,32.38 C34.4,32.38 35.56,32.92 36.42,34 C37.2,35 37.6,36.26 37.6,37.78 C37.6,39.36 37.2,40.66 36.4,41.66 C35.52,42.74 34.32,43.28 32.8,43.28 C31.44,43.28 30.4,42.82 29.68,41.9 L29.68,43 L27.56,43 L27.56,28.44 Z M32.38,34.22 C31.64,34.22 31.04,34.52 30.56,35.12 C30.02,35.76 29.76,36.64 29.76,37.74 L29.76,37.9 C29.76,38.9 29.96,39.74 30.4,40.38 C30.88,41.08 31.56,41.44 32.46,41.44 C33.46,41.44 34.2,41.08 34.68,40.36 C35.06,39.76 35.26,38.9 35.26,37.78 C35.26,36.66 35.04,35.82 34.64,35.24 C34.16,34.56 33.4,34.22 32.38,34.22 Z M41.16,39.98 C41.7,39.98 42.16,40.2 42.52,40.64 C42.86,41.08 43.04,41.66 43.04,42.36 C43.04,43.42 42.72,44.34 42.12,45.14 C41.5,45.92 40.66,46.46 39.62,46.76 L39.62,45.44 C40.16,45.24 40.62,44.92 41,44.48 C41.36,44 41.52,43.54 41.52,43.06 C41.4,43.1 41.24,43.14 41.02,43.14 C40.58,43.14 40.22,42.98 39.92,42.68 C39.62,42.38 39.48,42 39.48,41.56 C39.48,41.08 39.64,40.7 39.96,40.42 C40.26,40.12 40.66,39.98 41.16,39.98 Z M53.3,28.44 C53.74,28.44 54.12,28.58 54.42,28.86 C54.7,29.14 54.86,29.5 54.86,29.94 C54.86,30.38 54.7,30.76 54.4,31.04 C54.1,31.32 53.74,31.46 53.3,31.46 C52.86,31.46 52.5,31.32 52.2,31.04 C51.9,30.74 51.76,30.38 51.76,29.94 C51.76,29.5 51.9,29.14 52.2,28.86 C52.5,28.58 52.86,28.44 53.3,28.44 Z M52.16,32.66 L54.44,32.66 L54.44,43 L52.16,43 L52.16,32.66 Z M61.32,28.72 L63.52,28.72 L63.52,30.64 L61.64,30.64 C61.34,30.64 61.12,30.72 60.96,30.88 C60.8,31.04 60.74,31.28 60.74,31.62 L60.74,32.66 L63.38,32.66 L63.38,34.52 L60.74,34.52 L60.74,43 L58.46,43 L58.46,34.52 L56.16,34.52 L56.16,32.66 L58.46,32.66 L58.46,31.56 C58.46,30.68 58.7,29.98 59.2,29.48 C59.68,28.96 60.4,28.72 61.32,28.72 Z M70.38,32.66 L72.86,32.66 L75.6,40.02 L78.22,32.66 L80.7,32.66 L75.1,46.96 L72.66,46.96 L74.48,42.76 L70.38,32.66 Z M86.8,32.38 C88.36,32.38 89.62,32.88 90.58,33.92 C91.52,34.94 92,36.24 92,37.84 C92,39.42 91.52,40.72 90.6,41.72 C89.64,42.76 88.36,43.28 86.8,43.28 C85.22,43.28 83.96,42.76 83,41.72 C82.06,40.72 81.6,39.42 81.6,37.84 C81.6,36.24 82.06,34.94 83.02,33.92 C83.96,32.88 85.22,32.38 86.8,32.38 Z M86.8,34.24 C85.84,34.24 85.12,34.6 84.6,35.36 C84.16,36 83.94,36.84 83.94,37.84 C83.94,38.84 84.16,39.66 84.6,40.3 C85.12,41.04 85.84,41.42 86.8,41.42 C87.74,41.42 88.48,41.04 89,40.3 C89.44,39.64 89.68,38.82 89.68,37.84 C89.68,36.84 89.44,36 89,35.36 C88.48,34.6 87.74,34.24 86.8,34.24 Z M94,32.66 L96.28,32.66 L96.28,38.96 C96.28,39.8 96.44,40.4 96.8,40.8 C97.16,41.18 97.72,41.38 98.52,41.38 C99.02,41.38 99.5,41.16 99.96,40.74 C100.42,40.3 100.76,39.72 100.96,38.98 L100.96,32.66 L103.24,32.66 L103.24,43 L100.96,43 L100.96,41.66 C100.08,42.74 99,43.28 97.72,43.28 C95.24,43.28 94,41.88 94,39.1 L94,32.66 Z M112.5,28.44 L114.78,28.44 L114.78,43 L112.5,43 L112.5,28.44 Z M118.92,28.44 C119.36,28.44 119.74,28.58 120.04,28.86 C120.32,29.14 120.48,29.5 120.48,29.94 C120.48,30.38 120.32,30.76 120.02,31.04 C119.72,31.32 119.36,31.46 118.92,31.46 C118.48,31.46 118.12,31.32 117.82,31.04 C117.52,30.74 117.38,30.38 117.38,29.94 C117.38,29.5 117.52,29.14 117.82,28.86 C118.12,28.58 118.48,28.44 118.92,28.44 Z M117.78,32.66 L120.06,32.66 L120.06,43 L117.78,43 L117.78,32.66 Z M122.88,28.44 L125.16,28.44 L125.16,36.76 L129.4,32.66 L132.34,32.66 L127.76,36.94 L132.74,43 L129.82,43 L126.2,38.4 L125.16,39.38 L125.16,43 L122.88,43 L122.88,28.44 Z M138.34,32.38 C140.04,32.38 141.34,32.94 142.24,34.1 C143.06,35.14 143.48,36.6 143.48,38.46 L135.74,38.46 C135.82,39.42 136.08,40.16 136.52,40.66 C136.96,41.16 137.6,41.42 138.42,41.42 C139.12,41.42 139.68,41.26 140.12,40.94 C140.46,40.68 140.76,40.26 141.04,39.68 L143.32,39.68 C143.08,40.64 142.6,41.46 141.88,42.1 C140.96,42.88 139.82,43.28 138.44,43.28 C136.9,43.28 135.68,42.8 134.78,41.86 C133.82,40.88 133.34,39.54 133.34,37.82 C133.34,36.28 133.78,35 134.7,33.96 C135.58,32.9 136.8,32.38 138.34,32.38 Z M138.4,34.24 C137.64,34.24 137.06,34.44 136.62,34.88 C136.2,35.3 135.92,35.92 135.78,36.74 L141.1,36.74 C140.9,35.06 140,34.24 138.4,34.24 Z M153.48,28.44 C153.92,28.44 154.3,28.58 154.6,28.86 C154.88,29.14 155.04,29.5 155.04,29.94 C155.04,30.38 154.88,30.76 154.58,31.04 C154.28,31.32 153.92,31.46 153.48,31.46 C153.04,31.46 152.68,31.32 152.38,31.04 C152.08,30.74 151.94,30.38 151.94,29.94 C151.94,29.5 152.08,29.14 152.38,28.86 C152.68,28.58 153.04,28.44 153.48,28.44 Z M152.34,32.66 L154.62,32.66 L154.62,43 L152.34,43 L152.34,32.66 Z M160.68,29.32 L160.68,32.66 L162.98,32.66 L162.98,34.54 L160.68,34.54 L160.68,40.38 C160.68,40.62 160.72,40.8 160.84,40.94 C160.96,41.06 161.12,41.12 161.36,41.12 L162.72,41.12 L162.72,43 L160.98,43 C160.08,43 159.42,42.76 159,42.28 C158.6,41.84 158.4,41.22 158.4,40.38 L158.4,34.54 L156.54,34.54 L156.54,32.66 L158.4,32.66 L158.4,30.26 L160.68,29.32 Z M166.24,39.98 C166.78,39.98 167.24,40.2 167.6,40.64 C167.94,41.08 168.12,41.66 168.12,42.36 C168.12,43.42 167.8,44.34 167.2,45.14 C166.58,45.92 165.74,46.46 164.7,46.76 L164.7,45.44 C165.24,45.24 165.7,44.92 166.08,44.48 C166.44,44 166.6,43.54 166.6,43.06 C166.48,43.1 166.32,43.14 166.1,43.14 C165.66,43.14 165.3,42.98 165,42.68 C164.7,42.38 164.56,42 164.56,41.56 C164.56,41.08 164.72,40.7 165.04,40.42 C165.34,40.12 165.74,39.98 166.24,39.98 Z M182.08,32.38 C183.6,32.38 184.8,32.92 185.68,34 C186.48,35 186.88,36.28 186.88,37.88 C186.88,39.4 186.48,40.66 185.7,41.66 C184.86,42.74 183.68,43.28 182.2,43.28 C181,43.28 179.96,42.7 179.12,41.58 L179.12,46.96 L176.84,46.96 L176.84,32.66 L178.96,32.66 L178.96,33.76 C179.68,32.84 180.72,32.38 182.08,32.38 Z M181.74,34.22 C180.84,34.22 180.16,34.56 179.68,35.28 C179.24,35.9 179.04,36.72 179.04,37.76 L179.04,37.92 C179.04,39 179.3,39.88 179.84,40.54 C180.32,41.14 180.92,41.44 181.66,41.44 C182.66,41.44 183.42,41.1 183.9,40.46 C184.32,39.86 184.54,39 184.54,37.88 C184.54,36.76 184.34,35.9 183.96,35.3 C183.48,34.58 182.74,34.22 181.74,34.22 Z M189.08,28.44 L191.36,28.44 L191.36,43 L189.08,43 L189.08,28.44 Z M193.46,32.66 L202.06,32.66 L202.06,34.12 L196.26,41.14 L202.38,41.14 L202.38,43 L193.26,43 L193.26,41.46 L198.98,34.52 L193.46,34.52 L193.46,32.66 Z M214.64,32.38 C217.36,32.38 218.86,33.46 219.1,35.66 L216.88,35.66 C216.72,35.14 216.48,34.76 216.16,34.56 C215.82,34.34 215.3,34.24 214.6,34.24 C214,34.24 213.54,34.32 213.24,34.5 C212.88,34.68 212.72,34.96 212.72,35.36 C212.72,35.68 212.98,35.98 213.54,36.22 C213.88,36.36 214.56,36.56 215.6,36.82 C216.76,37.1 217.64,37.42 218.2,37.8 C219.02,38.32 219.44,39.06 219.44,39.98 C219.44,42.18 217.88,43.28 214.78,43.28 C211.9,43.28 210.36,42.06 210.14,39.64 L212.36,39.64 C212.48,40.3 212.72,40.76 213.06,41.04 C213.4,41.28 213.94,41.42 214.7,41.42 C216.3,41.42 217.1,40.98 217.1,40.14 C217.1,39.66 216.8,39.28 216.2,39 C215.88,38.84 215.2,38.66 214.16,38.42 C212.94,38.14 212.08,37.84 211.58,37.52 C210.78,37.02 210.38,36.32 210.38,35.42 C210.38,34.46 210.76,33.72 211.56,33.2 C212.34,32.64 213.36,32.38 214.64,32.38 Z M221.24,28.44 L223.52,28.44 L223.52,34.04 C223.9,33.46 224.38,33.04 224.94,32.76 C225.44,32.5 226.02,32.38 226.68,32.38 C227.94,32.38 228.88,32.74 229.5,33.48 C230.08,34.18 230.38,35.22 230.38,36.6 L230.38,43 L228.1,43 L228.1,37 C228.1,36.12 227.92,35.44 227.58,34.98 C227.18,34.48 226.6,34.24 225.82,34.24 C225.1,34.24 224.54,34.52 224.14,35.08 C223.72,35.64 223.52,36.34 223.52,37.22 L223.52,43 L221.24,43 L221.24,28.44 Z M237.48,32.38 C239,32.38 240.14,32.76 240.86,33.52 C241.5,34.18 241.82,35.14 241.82,36.4 L241.82,43 L239.7,43 L239.7,41.64 C239.3,42.16 238.8,42.54 238.22,42.82 C237.56,43.12 236.78,43.28 235.88,43.28 C234.8,43.28 233.96,43 233.34,42.46 C232.7,41.9 232.38,41.2 232.38,40.34 C232.38,39.18 232.82,38.28 233.74,37.66 C234.58,37.06 235.76,36.74 237.28,36.7 L239.54,36.64 L239.54,36.24 C239.54,34.88 238.8,34.22 237.32,34.22 C236.68,34.22 236.18,34.32 235.8,34.56 C235.36,34.82 235.06,35.22 234.94,35.76 L232.68,35.58 C232.9,34.44 233.46,33.6 234.36,33.08 C235.12,32.6 236.16,32.38 237.48,32.38 Z M239.54,38.28 L237.44,38.34 C235.62,38.38 234.72,39.02 234.72,40.26 C234.72,40.62 234.86,40.92 235.18,41.16 C235.5,41.4 235.9,41.54 236.4,41.54 C237.28,41.54 238.02,41.28 238.62,40.78 C239.22,40.26 239.54,39.6 239.54,38.8 L239.54,38.28 Z M249.1,32.38 C249.6,32.38 250.04,32.46 250.4,32.64 L250.4,34.92 C249.88,34.76 249.4,34.7 248.92,34.7 C248.32,34.7 247.78,34.92 247.3,35.4 C246.74,35.94 246.48,36.64 246.48,37.52 L246.48,43 L244.22,43 L244.22,32.66 L246.48,32.66 L246.48,34.14 C246.76,33.62 247.08,33.22 247.46,32.94 C247.92,32.56 248.46,32.38 249.1,32.38 Z M256.1,32.38 C257.8,32.38 259.1,32.94 260,34.1 C260.82,35.14 261.24,36.6 261.24,38.46 L253.5,38.46 C253.58,39.42 253.84,40.16 254.28,40.66 C254.72,41.16 255.36,41.42 256.18,41.42 C256.88,41.42 257.44,41.26 257.88,40.94 C258.22,40.68 258.52,40.26 258.8,39.68 L261.08,39.68 C260.84,40.64 260.36,41.46 259.64,42.1 C258.72,42.88 257.58,43.28 256.2,43.28 C254.66,43.28 253.44,42.8 252.54,41.86 C251.58,40.88 251.1,39.54 251.1,37.82 C251.1,36.28 251.54,35 252.46,33.96 C253.34,32.9 254.56,32.38 256.1,32.38 Z M256.16,34.24 C255.4,34.24 254.82,34.44 254.38,34.88 C253.96,35.3 253.68,35.92 253.54,36.74 L258.86,36.74 C258.66,35.06 257.76,34.24 256.16,34.24 Z M2.74,56.44 C3.18,56.44 3.56,56.58 3.86,56.86 C4.14,57.14 4.3,57.5 4.3,57.94 C4.3,58.38 4.14,58.76 3.84,59.04 C3.54,59.32 3.18,59.46 2.74,59.46 C2.3,59.46 1.94,59.32 1.64,59.04 C1.34,58.74 1.2,58.38 1.2,57.94 C1.2,57.5 1.34,57.14 1.64,56.86 C1.94,56.58 2.3,56.44 2.74,56.44 Z M1.6,60.66 L3.88,60.66 L3.88,71 L1.6,71 L1.6,60.66 Z M9.94,57.32 L9.94,60.66 L12.24,60.66 L12.24,62.54 L9.94,62.54 L9.94,68.38 C9.94,68.62 9.98,68.8 10.1,68.94 C10.22,69.06 10.38,69.12 10.62,69.12 L11.98,69.12 L11.98,71 L10.24,71 C9.34,71 8.68,70.76 8.26,70.28 C7.86,69.84 7.66,69.22 7.66,68.38 L7.66,62.54 L5.8,62.54 L5.8,60.66 L7.66,60.66 L7.66,58.26 L9.94,57.32 Z M23.84,57.32 L23.84,60.66 L26.14,60.66 L26.14,62.54 L23.84,62.54 L23.84,68.38 C23.84,68.62 23.88,68.8 24,68.94 C24.12,69.06 24.28,69.12 24.52,69.12 L25.88,69.12 L25.88,71 L24.14,71 C23.24,71 22.58,70.76 22.16,70.28 C21.76,69.84 21.56,69.22 21.56,68.38 L21.56,62.54 L19.7,62.54 L19.7,60.66 L21.56,60.66 L21.56,58.26 L23.84,57.32 Z M32.64,60.38 C34.2,60.38 35.46,60.88 36.42,61.92 C37.36,62.94 37.84,64.24 37.84,65.84 C37.84,67.42 37.36,68.72 36.44,69.72 C35.48,70.76 34.2,71.28 32.64,71.28 C31.06,71.28 29.8,70.76 28.84,69.72 C27.9,68.72 27.44,67.42 27.44,65.84 C27.44,64.24 27.9,62.94 28.86,61.92 C29.8,60.88 31.06,60.38 32.64,60.38 Z M32.64,62.24 C31.68,62.24 30.96,62.6 30.44,63.36 C30,64 29.78,64.84 29.78,65.84 C29.78,66.84 30,67.66 30.44,68.3 C30.96,69.04 31.68,69.42 32.64,69.42 C33.58,69.42 34.32,69.04 34.84,68.3 C35.28,67.64 35.52,66.82 35.52,65.84 C35.52,64.84 35.28,64 34.84,63.36 C34.32,62.6 33.58,62.24 32.64,62.24 Z M45.4,60.66 L47.88,60.66 L50.62,68.02 L53.24,60.66 L55.72,60.66 L50.12,74.96 L47.68,74.96 L49.5,70.76 L45.4,60.66 Z M61.82,60.38 C63.38,60.38 64.64,60.88 65.6,61.92 C66.54,62.94 67.02,64.24 67.02,65.84 C67.02,67.42 66.54,68.72 65.62,69.72 C64.66,70.76 63.38,71.28 61.82,71.28 C60.24,71.28 58.98,70.76 58.02,69.72 C57.08,68.72 56.62,67.42 56.62,65.84 C56.62,64.24 57.08,62.94 58.04,61.92 C58.98,60.88 60.24,60.38 61.82,60.38 Z M61.82,62.24 C60.86,62.24 60.14,62.6 59.62,63.36 C59.18,64 58.96,64.84 58.96,65.84 C58.96,66.84 59.18,67.66 59.62,68.3 C60.14,69.04 60.86,69.42 61.82,69.42 C62.76,69.42 63.5,69.04 64.02,68.3 C64.46,67.64 64.7,66.82 64.7,65.84 C64.7,64.84 64.46,64 64.02,63.36 C63.5,62.6 62.76,62.24 61.82,62.24 Z M69.02,60.66 L71.3,60.66 L71.3,66.96 C71.3,67.8 71.46,68.4 71.82,68.8 C72.18,69.18 72.74,69.38 73.54,69.38 C74.04,69.38 74.52,69.16 74.98,68.74 C75.44,68.3 75.78,67.72 75.98,66.98 L75.98,60.66 L78.26,60.66 L78.26,71 L75.98,71 L75.98,69.66 C75.1,70.74 74.02,71.28 72.74,71.28 C70.26,71.28 69.02,69.88 69.02,67.1 L69.02,60.66 Z M85.54,60.38 C86.04,60.38 86.48,60.46 86.84,60.64 L86.84,62.92 C86.32,62.76 85.84,62.7 85.36,62.7 C84.76,62.7 84.22,62.92 83.74,63.4 C83.18,63.94 82.92,64.64 82.92,65.52 L82.92,71 L80.66,71 L80.66,60.66 L82.92,60.66 L82.92,62.14 C83.2,61.62 83.52,61.22 83.9,60.94 C84.36,60.56 84.9,60.38 85.54,60.38 Z M98.86,56.72 L101.06,56.72 L101.06,58.64 L99.18,58.64 C98.88,58.64 98.66,58.72 98.5,58.88 C98.34,59.04 98.28,59.28 98.28,59.62 L98.28,60.66 L100.92,60.66 L100.92,62.52 L98.28,62.52 L98.28,71 L96,71 L96,62.52 L93.7,62.52 L93.7,60.66 L96,60.66 L96,59.56 C96,58.68 96.24,57.98 96.74,57.48 C97.22,56.96 97.94,56.72 98.86,56.72 Z M107.24,60.38 C107.74,60.38 108.18,60.46 108.54,60.64 L108.54,62.92 C108.02,62.76 107.54,62.7 107.06,62.7 C106.46,62.7 105.92,62.92 105.44,63.4 C104.88,63.94 104.62,64.64 104.62,65.52 L104.62,71 L102.36,71 L102.36,60.66 L104.62,60.66 L104.62,62.14 C104.9,61.62 105.22,61.22 105.6,60.94 C106.06,60.56 106.6,60.38 107.24,60.38 Z M111.38,56.44 C111.82,56.44 112.2,56.58 112.5,56.86 C112.78,57.14 112.94,57.5 112.94,57.94 C112.94,58.38 112.78,58.76 112.48,59.04 C112.18,59.32 111.82,59.46 111.38,59.46 C110.94,59.46 110.58,59.32 110.28,59.04 C109.98,58.74 109.84,58.38 109.84,57.94 C109.84,57.5 109.98,57.14 110.28,56.86 C110.58,56.58 110.94,56.44 111.38,56.44 Z M110.24,60.66 L112.52,60.66 L112.52,71 L110.24,71 L110.24,60.66 Z M119.74,60.38 C121.44,60.38 122.74,60.94 123.64,62.1 C124.46,63.14 124.88,64.6 124.88,66.46 L117.14,66.46 C117.22,67.42 117.48,68.16 117.92,68.66 C118.36,69.16 119,69.42 119.82,69.42 C120.52,69.42 121.08,69.26 121.52,68.94 C121.86,68.68 122.16,68.26 122.44,67.68 L124.72,67.68 C124.48,68.64 124,69.46 123.28,70.1 C122.36,70.88 121.22,71.28 119.84,71.28 C118.3,71.28 117.08,70.8 116.18,69.86 C115.22,68.88 114.74,67.54 114.74,65.82 C114.74,64.28 115.18,63 116.1,61.96 C116.98,60.9 118.2,60.38 119.74,60.38 Z M119.8,62.24 C119.04,62.24 118.46,62.44 118.02,62.88 C117.6,63.3 117.32,63.92 117.18,64.74 L122.5,64.74 C122.3,63.06 121.4,62.24 119.8,62.24 Z M132.02,60.38 C134.6,60.38 135.9,61.78 135.9,64.62 L135.9,71 L133.62,71 L133.62,64.82 C133.62,63.12 132.84,62.28 131.28,62.28 C130.72,62.28 130.22,62.48 129.8,62.88 C129.32,63.32 129.04,63.96 128.96,64.78 L128.96,71 L126.68,71 L126.68,60.66 L128.96,60.66 L128.96,61.86 C129.36,61.38 129.82,61 130.32,60.76 C130.84,60.5 131.4,60.38 132.02,60.38 Z M145.66,56.44 L147.94,56.44 L147.94,71 L145.82,71 L145.82,69.9 C145.1,70.82 144.06,71.28 142.7,71.28 C141.16,71.28 139.96,70.74 139.1,69.66 C138.3,68.66 137.9,67.36 137.9,65.78 C137.9,64.26 138.28,63 139.08,62 C139.92,60.92 141.1,60.38 142.58,60.38 C143.78,60.38 144.8,60.94 145.66,62.08 L145.66,56.44 Z M143.12,62.22 C142.08,62.22 141.34,62.56 140.86,63.24 C140.44,63.82 140.24,64.66 140.24,65.78 C140.24,66.9 140.42,67.76 140.82,68.36 C141.28,69.08 142.02,69.44 143.04,69.44 C143.92,69.44 144.62,69.08 145.1,68.38 C145.52,67.74 145.74,66.9 145.74,65.9 L145.74,65.74 C145.74,64.64 145.46,63.76 144.94,63.12 C144.46,62.52 143.84,62.22 143.12,62.22 Z M154.24,60.38 C156.96,60.38 158.46,61.46 158.7,63.66 L156.48,63.66 C156.32,63.14 156.08,62.76 155.76,62.56 C155.42,62.34 154.9,62.24 154.2,62.24 C153.6,62.24 153.14,62.32 152.84,62.5 C152.48,62.68 152.32,62.96 152.32,63.36 C152.32,63.68 152.58,63.98 153.14,64.22 C153.48,64.36 154.16,64.56 155.2,64.82 C156.36,65.1 157.24,65.42 157.8,65.8 C158.62,66.32 159.04,67.06 159.04,67.98 C159.04,70.18 157.48,71.28 154.38,71.28 C151.5,71.28 149.96,70.06 149.74,67.64 L151.96,67.64 C152.08,68.3 152.32,68.76 152.66,69.04 C153,69.28 153.54,69.42 154.3,69.42 C155.9,69.42 156.7,68.98 156.7,68.14 C156.7,67.66 156.4,67.28 155.8,67 C155.48,66.84 154.8,66.66 153.76,66.42 C152.54,66.14 151.68,65.84 151.18,65.52 C150.38,65.02 149.98,64.32 149.98,63.42 C149.98,62.46 150.36,61.72 151.16,61.2 C151.94,60.64 152.96,60.38 154.24,60.38 Z M162.38,67.98 C162.82,67.98 163.18,68.12 163.5,68.44 C163.8,68.74 163.96,69.12 163.96,69.56 C163.96,70 163.8,70.36 163.5,70.68 C163.18,70.96 162.82,71.12 162.38,71.12 C161.94,71.12 161.56,70.96 161.28,70.68 C160.96,70.36 160.82,70 160.82,69.56 C160.82,69.12 160.96,68.74 161.28,68.44 C161.56,68.12 161.94,67.98 162.38,67.98 Z" id="ThanksforusingJavaScriptHub,ifyoulikeit,plzshareittoyourfriends."></path>
                <path d="M0.7,101.898 L7.77,101.898 L7.77,102.85 L0.7,102.85 L0.7,101.898 Z M13.202,96.004 L14.588,96.004 L17.766,100.876 L20.944,96.004 L22.33,96.004 L18.34,101.94 L18.34,106 L17.192,106 L17.192,101.94 L13.202,96.004 Z M26.418,98.566 C27.454,98.566 28.21,98.832 28.714,99.378 C29.134,99.854 29.358,100.512 29.358,101.352 L29.358,106 L28.308,106 L28.308,104.782 C28.028,105.174 27.65,105.496 27.202,105.748 C26.67,106.042 26.068,106.196 25.396,106.196 C24.668,106.196 24.094,106.014 23.66,105.65 C23.212,105.272 22.988,104.782 22.988,104.194 C22.988,103.368 23.31,102.752 23.982,102.332 C24.57,101.94 25.41,101.73 26.502,101.716 L28.238,101.688 L28.238,101.31 C28.238,100.092 27.608,99.49 26.348,99.49 C25.816,99.49 25.382,99.588 25.046,99.812 C24.668,100.036 24.43,100.386 24.318,100.848 L23.212,100.764 C23.366,100.008 23.744,99.434 24.332,99.07 C24.864,98.734 25.55,98.566 26.418,98.566 Z M28.238,102.528 L26.572,102.556 C24.948,102.584 24.136,103.116 24.136,104.166 C24.136,104.502 24.262,104.768 24.542,104.992 C24.822,105.202 25.186,105.314 25.634,105.314 C26.32,105.314 26.922,105.09 27.454,104.642 C27.972,104.208 28.238,103.704 28.238,103.144 L28.238,102.528 Z M34.482,98.566 C36.274,98.566 37.184,99.56 37.184,101.548 L37.184,106 L36.064,106 L36.064,101.632 C36.064,100.218 35.42,99.518 34.16,99.518 C33.656,99.518 33.222,99.7 32.858,100.064 C32.466,100.456 32.256,100.974 32.214,101.632 L32.214,106 L31.094,106 L31.094,98.762 L32.214,98.762 L32.214,99.826 C32.466,99.42 32.788,99.112 33.18,98.902 C33.572,98.678 34.006,98.566 34.482,98.566 Z M41.902,98.566 C42.994,98.566 43.806,99.042 44.338,100.008 L44.338,98.762 L45.458,98.762 L45.458,105.496 C45.458,107.806 44.352,108.968 42.154,108.968 C41.174,108.968 40.418,108.772 39.914,108.38 C39.396,107.988 39.074,107.4 38.948,106.616 L40.068,106.616 C40.152,107.106 40.362,107.47 40.684,107.694 C41.006,107.932 41.496,108.058 42.154,108.058 C43.61,108.058 44.338,107.246 44.338,105.65 L44.338,104.376 C43.806,105.342 42.994,105.832 41.902,105.832 C40.894,105.832 40.096,105.482 39.508,104.796 C38.92,104.124 38.64,103.27 38.64,102.22 C38.64,101.156 38.92,100.302 39.508,99.63 C40.096,98.916 40.894,98.566 41.902,98.566 Z M42.07,99.49 C41.342,99.49 40.782,99.742 40.376,100.274 C39.984,100.75 39.788,101.408 39.788,102.22 C39.788,102.976 39.956,103.606 40.306,104.082 C40.698,104.614 41.272,104.894 42.056,104.894 C42.784,104.894 43.344,104.642 43.764,104.138 C44.156,103.648 44.352,103.004 44.352,102.22 C44.352,101.408 44.156,100.75 43.764,100.274 C43.344,99.742 42.784,99.49 42.07,99.49 Z M56.084,96.004 L57.232,96.004 L57.232,102.808 C57.232,103.9 57.008,104.712 56.56,105.272 C56.056,105.888 55.244,106.196 54.138,106.196 C53.2,106.196 52.486,105.93 51.982,105.426 C51.45,104.894 51.198,104.138 51.198,103.158 L51.198,102.808 L52.346,102.808 L52.346,103.144 C52.346,104.488 52.948,105.174 54.166,105.174 C54.838,105.174 55.328,104.964 55.636,104.572 C55.93,104.194 56.084,103.592 56.084,102.766 L56.084,96.004 Z M60.018,96.032 C60.256,96.032 60.452,96.102 60.62,96.27 C60.788,96.41 60.872,96.606 60.872,96.858 C60.872,97.096 60.788,97.292 60.62,97.46 C60.452,97.614 60.256,97.698 60.018,97.698 C59.78,97.698 59.584,97.614 59.416,97.46 C59.248,97.292 59.178,97.096 59.178,96.858 C59.178,96.606 59.248,96.41 59.416,96.27 C59.584,96.102 59.78,96.032 60.018,96.032 Z M59.458,98.762 L60.578,98.762 L60.578,106 L59.458,106 L59.458,98.762 Z M66.066,98.566 C67.858,98.566 68.768,99.56 68.768,101.548 L68.768,106 L67.648,106 L67.648,101.632 C67.648,100.218 67.004,99.518 65.744,99.518 C65.24,99.518 64.806,99.7 64.442,100.064 C64.05,100.456 63.84,100.974 63.798,101.632 L63.798,106 L62.678,106 L62.678,98.762 L63.798,98.762 L63.798,99.826 C64.05,99.42 64.372,99.112 64.764,98.902 C65.156,98.678 65.59,98.566 66.066,98.566 Z M78.064,96.004 L79.45,96.004 L79.45,96.97 L78.204,96.97 C77.896,96.97 77.658,97.04 77.518,97.208 C77.378,97.362 77.308,97.614 77.308,97.964 L77.308,98.762 L79.352,98.762 L79.352,99.7 L77.308,99.7 L77.308,106 L76.188,106 L76.188,99.7 L74.368,99.7 L74.368,98.762 L76.188,98.762 L76.188,97.936 C76.188,97.32 76.342,96.858 76.65,96.522 C76.972,96.172 77.448,96.004 78.064,96.004 Z M83.566,98.566 C83.958,98.566 84.294,98.622 84.56,98.734 L84.56,99.854 C84.196,99.742 83.832,99.7 83.482,99.7 C82.922,99.7 82.446,99.938 82.068,100.442 C81.676,100.918 81.494,101.492 81.494,102.164 L81.494,106 L80.388,106 L80.388,98.762 L81.494,98.762 L81.494,100.022 C81.69,99.602 81.942,99.266 82.25,99.028 C82.628,98.72 83.062,98.566 83.566,98.566 Z M88.732,98.566 C89.81,98.566 90.678,98.93 91.322,99.686 C91.938,100.4 92.246,101.296 92.246,102.388 C92.246,103.466 91.938,104.362 91.336,105.062 C90.678,105.818 89.81,106.196 88.732,106.196 C87.64,106.196 86.786,105.818 86.142,105.062 C85.526,104.362 85.218,103.466 85.218,102.388 C85.218,101.296 85.526,100.4 86.142,99.686 C86.786,98.93 87.64,98.566 88.732,98.566 Z M88.732,99.504 C87.962,99.504 87.36,99.798 86.94,100.386 C86.548,100.918 86.366,101.576 86.366,102.388 C86.366,103.186 86.548,103.844 86.94,104.376 C87.36,104.964 87.962,105.258 88.732,105.258 C89.488,105.258 90.09,104.964 90.538,104.376 C90.916,103.844 91.112,103.172 91.112,102.388 C91.112,101.576 90.916,100.918 90.538,100.386 C90.09,99.798 89.488,99.504 88.732,99.504 Z M96.866,98.566 C97.972,98.566 98.728,99.014 99.134,99.938 C99.414,99.462 99.75,99.112 100.142,98.902 C100.492,98.678 100.912,98.566 101.416,98.566 C102.172,98.566 102.774,98.804 103.25,99.28 C103.698,99.77 103.936,100.428 103.936,101.254 L103.936,106 L102.816,106 L102.816,101.436 C102.816,100.792 102.676,100.316 102.41,100.008 C102.13,99.672 101.682,99.518 101.066,99.518 C100.59,99.518 100.184,99.686 99.876,100.05 C99.54,100.414 99.386,100.876 99.386,101.464 L99.386,106 L98.266,106 L98.266,101.436 C98.266,100.148 97.706,99.518 96.6,99.518 C96.082,99.518 95.662,99.714 95.326,100.134 C94.99,100.526 94.822,101.016 94.822,101.59 L94.822,106 L93.702,106 L93.702,98.762 L94.822,98.762 L94.822,99.728 C95.368,98.944 96.054,98.566 96.866,98.566 Z M115.682,95.808 L116.802,95.808 L116.802,106 L115.752,106 L115.752,104.81 C115.248,105.734 114.436,106.196 113.344,106.196 C112.28,106.196 111.454,105.804 110.866,105.048 C110.32,104.348 110.054,103.452 110.054,102.36 C110.054,101.296 110.32,100.428 110.866,99.728 C111.454,98.944 112.252,98.566 113.288,98.566 C114.324,98.566 115.122,99.07 115.682,100.092 L115.682,95.808 Z M113.526,99.49 C112.728,99.49 112.126,99.77 111.734,100.33 C111.37,100.82 111.202,101.492 111.202,102.36 C111.202,103.228 111.37,103.914 111.72,104.418 C112.112,104.978 112.7,105.272 113.484,105.272 C114.212,105.272 114.772,104.992 115.178,104.432 C115.528,103.928 115.71,103.27 115.71,102.458 L115.71,102.318 C115.71,101.478 115.5,100.792 115.108,100.274 C114.702,99.742 114.17,99.49 113.526,99.49 Z M121.52,98.566 C122.682,98.566 123.564,98.958 124.152,99.742 C124.684,100.442 124.964,101.436 124.992,102.696 L119.28,102.696 C119.336,103.508 119.546,104.138 119.938,104.586 C120.33,105.034 120.876,105.258 121.562,105.258 C122.15,105.258 122.64,105.104 123.004,104.81 C123.312,104.558 123.55,104.18 123.732,103.676 L124.852,103.676 C124.684,104.376 124.362,104.936 123.872,105.384 C123.27,105.916 122.5,106.196 121.562,106.196 C120.526,106.196 119.686,105.846 119.07,105.174 C118.426,104.474 118.118,103.55 118.118,102.374 C118.118,101.31 118.412,100.414 119.028,99.7 C119.644,98.944 120.47,98.566 121.52,98.566 Z M121.548,99.504 C120.904,99.504 120.386,99.714 119.994,100.134 C119.602,100.554 119.378,101.114 119.308,101.828 L123.83,101.828 C123.69,100.274 122.92,99.504 121.548,99.504 Z M125.93,98.762 L131.684,98.762 L131.684,99.546 L127.246,105.062 L131.908,105.062 L131.908,106 L125.79,106 L125.79,105.188 L130.214,99.7 L125.93,99.7 L125.93,98.762 Z M134.05,96.032 C134.288,96.032 134.484,96.102 134.652,96.27 C134.82,96.41 134.904,96.606 134.904,96.858 C134.904,97.096 134.82,97.292 134.652,97.46 C134.484,97.614 134.288,97.698 134.05,97.698 C133.812,97.698 133.616,97.614 133.448,97.46 C133.28,97.292 133.21,97.096 133.21,96.858 C133.21,96.606 133.28,96.41 133.448,96.27 C133.616,96.102 133.812,96.032 134.05,96.032 Z M133.49,98.762 L134.61,98.762 L134.61,106 L133.49,106 L133.49,98.762 Z M140.098,98.566 C141.89,98.566 142.8,99.56 142.8,101.548 L142.8,106 L141.68,106 L141.68,101.632 C141.68,100.218 141.036,99.518 139.776,99.518 C139.272,99.518 138.838,99.7 138.474,100.064 C138.082,100.456 137.872,100.974 137.83,101.632 L137.83,106 L136.71,106 L136.71,98.762 L137.83,98.762 L137.83,99.826 C138.082,99.42 138.404,99.112 138.796,98.902 C139.188,98.678 139.622,98.566 140.098,98.566 Z M147.518,98.566 C148.68,98.566 149.562,98.958 150.15,99.742 C150.682,100.442 150.962,101.436 150.99,102.696 L145.278,102.696 C145.334,103.508 145.544,104.138 145.936,104.586 C146.328,105.034 146.874,105.258 147.56,105.258 C148.148,105.258 148.638,105.104 149.002,104.81 C149.31,104.558 149.548,104.18 149.73,103.676 L150.85,103.676 C150.682,104.376 150.36,104.936 149.87,105.384 C149.268,105.916 148.498,106.196 147.56,106.196 C146.524,106.196 145.684,105.846 145.068,105.174 C144.424,104.474 144.116,103.55 144.116,102.374 C144.116,101.31 144.41,100.414 145.026,99.7 C145.642,98.944 146.468,98.566 147.518,98.566 Z M147.546,99.504 C146.902,99.504 146.384,99.714 145.992,100.134 C145.6,100.554 145.376,101.114 145.306,101.828 L149.828,101.828 C149.688,100.274 148.918,99.504 147.546,99.504 Z M152.53,95.808 L153.636,95.808 L153.636,106 L152.53,106 L152.53,95.808 Z M158.578,98.566 C159.74,98.566 160.622,98.958 161.21,99.742 C161.742,100.442 162.022,101.436 162.05,102.696 L156.338,102.696 C156.394,103.508 156.604,104.138 156.996,104.586 C157.388,105.034 157.934,105.258 158.62,105.258 C159.208,105.258 159.698,105.104 160.062,104.81 C160.37,104.558 160.608,104.18 160.79,103.676 L161.91,103.676 C161.742,104.376 161.42,104.936 160.93,105.384 C160.328,105.916 159.558,106.196 158.62,106.196 C157.584,106.196 156.744,105.846 156.128,105.174 C155.484,104.474 155.176,103.55 155.176,102.374 C155.176,101.31 155.47,100.414 156.086,99.7 C156.702,98.944 157.528,98.566 158.578,98.566 Z M158.606,99.504 C157.962,99.504 157.444,99.714 157.052,100.134 C156.66,100.554 156.436,101.114 156.366,101.828 L160.888,101.828 C160.748,100.274 159.978,99.504 158.606,99.504 Z M166.6,98.566 C167.678,98.566 168.546,98.93 169.19,99.686 C169.806,100.4 170.114,101.296 170.114,102.388 C170.114,103.466 169.806,104.362 169.204,105.062 C168.546,105.818 167.678,106.196 166.6,106.196 C165.508,106.196 164.654,105.818 164.01,105.062 C163.394,104.362 163.086,103.466 163.086,102.388 C163.086,101.296 163.394,100.4 164.01,99.686 C164.654,98.93 165.508,98.566 166.6,98.566 Z M166.6,99.504 C165.83,99.504 165.228,99.798 164.808,100.386 C164.416,100.918 164.234,101.576 164.234,102.388 C164.234,103.186 164.416,103.844 164.808,104.376 C165.228,104.964 165.83,105.258 166.6,105.258 C167.356,105.258 167.958,104.964 168.406,104.376 C168.784,103.844 168.98,103.172 168.98,102.388 C168.98,101.576 168.784,100.918 168.406,100.386 C167.958,99.798 167.356,99.504 166.6,99.504 Z M172.55,104.334 C172.774,104.334 172.984,104.418 173.152,104.586 C173.32,104.754 173.404,104.95 173.404,105.202 C173.404,105.44 173.32,105.636 173.152,105.804 C172.984,105.972 172.774,106.056 172.55,106.056 C172.298,106.056 172.102,105.972 171.948,105.804 C171.78,105.636 171.696,105.44 171.696,105.202 C171.696,104.95 171.78,104.754 171.948,104.586 C172.102,104.418 172.298,104.334 172.55,104.334 Z M178.388,98.566 C179.284,98.566 179.998,98.776 180.544,99.196 C181.104,99.63 181.44,100.288 181.566,101.17 L180.46,101.17 C180.362,100.61 180.138,100.19 179.788,99.91 C179.424,99.63 178.962,99.504 178.388,99.504 C177.688,99.504 177.128,99.77 176.722,100.302 C176.33,100.82 176.134,101.52 176.134,102.402 C176.134,103.284 176.316,103.984 176.708,104.488 C177.086,104.992 177.646,105.258 178.374,105.258 C179.606,105.258 180.32,104.628 180.488,103.382 L181.608,103.382 C181.44,104.306 181.09,105.02 180.53,105.496 C179.984,105.958 179.27,106.196 178.374,106.196 C177.282,106.196 176.442,105.832 175.84,105.104 C175.266,104.418 174.986,103.522 174.986,102.416 C174.986,101.31 175.266,100.414 175.84,99.714 C176.456,98.944 177.31,98.566 178.388,98.566 Z M186.158,98.566 C187.236,98.566 188.104,98.93 188.748,99.686 C189.364,100.4 189.672,101.296 189.672,102.388 C189.672,103.466 189.364,104.362 188.762,105.062 C188.104,105.818 187.236,106.196 186.158,106.196 C185.066,106.196 184.212,105.818 183.568,105.062 C182.952,104.362 182.644,103.466 182.644,102.388 C182.644,101.296 182.952,100.4 183.568,99.686 C184.212,98.93 185.066,98.566 186.158,98.566 Z M186.158,99.504 C185.388,99.504 184.786,99.798 184.366,100.386 C183.974,100.918 183.792,101.576 183.792,102.388 C183.792,103.186 183.974,103.844 184.366,104.376 C184.786,104.964 185.388,105.258 186.158,105.258 C186.914,105.258 187.516,104.964 187.964,104.376 C188.342,103.844 188.538,103.172 188.538,102.388 C188.538,101.576 188.342,100.918 187.964,100.386 C187.516,99.798 186.914,99.504 186.158,99.504 Z M194.292,98.566 C195.398,98.566 196.154,99.014 196.56,99.938 C196.84,99.462 197.176,99.112 197.568,98.902 C197.918,98.678 198.338,98.566 198.842,98.566 C199.598,98.566 200.2,98.804 200.676,99.28 C201.124,99.77 201.362,100.428 201.362,101.254 L201.362,106 L200.242,106 L200.242,101.436 C200.242,100.792 200.102,100.316 199.836,100.008 C199.556,99.672 199.108,99.518 198.492,99.518 C198.016,99.518 197.61,99.686 197.302,100.05 C196.966,100.414 196.812,100.876 196.812,101.464 L196.812,106 L195.692,106 L195.692,101.436 C195.692,100.148 195.132,99.518 194.026,99.518 C193.508,99.518 193.088,99.714 192.752,100.134 C192.416,100.526 192.248,101.016 192.248,101.59 L192.248,106 L191.128,106 L191.128,98.762 L192.248,98.762 L192.248,99.728 C192.794,98.944 193.48,98.566 194.292,98.566 Z" id="-YangJinfromdezineleo.com"></path>
            </g>
            <g id="avatar_origin" transform="translate(25.000000, 0.000000)">
                <mask id="mask-2" fill="white">
                    <use xlink:href="#path-1"></use>
                </mask>
                <use id="蒙版" fill="#F1ECE7" xlink:href="#path-1"></use>
                <g id="编组" mask="url(#mask-2)">
                    <g transform="translate(47.000000, 74.000000)">
                        <path d="M136.839638,55.9738333 C136.839638,55.9738333 135.591687,129.8905 98.3428508,129.8905 C61.5582525,129.8905 58.9242443,55.3238333 58.9242443,55.3238333 C57.1970803,52.4105 52.1886377,12.9471667 97.6706213,12.9471667 C143.92467,12.9471667 138.199072,52.3871667 136.839638,55.9738333 Z" id="Stroke-1" stroke="#1B1B1B" stroke-width="1.143" fill="none"></path>
                        <path d="M135.537942,72.5445 C135.537942,72.5445 139.83422,66.9228333 144.463286,69.9745 C149.094016,73.0245 147.077327,83.3661667 143.576409,88.4161667 C140.077155,93.4678333 134.707639,95.7878333 131.998753,91.6478333" id="Stroke-3" stroke="#1B1B1B" stroke-width="1.143" fill="none"></path>
                        <path d="M143.62849,76.4588333 C143.62849,76.4588333 138.345498,74.4038333 134.152384,82.1421667" id="Stroke-5" stroke="#1B1B1B" stroke-width="0.572" fill="none" stroke-linecap="round" stroke-linejoin="round"></path>
                        <path d="M60.6771992,72.5485 C60.6771992,72.5485 56.3875762,66.9218333 51.7535189,69.9668333 C47.1211254,73.0118333 49.1261664,83.3568333 52.6204287,88.4118333 C56.113027,93.4668333 61.4792156,95.7935 64.1930926,91.6568333" id="Stroke-7" stroke="#1B1B1B" stroke-width="1.143" fill="none"></path>
                        <path d="M52.5818254,76.4531667 C52.5818254,76.4531667 57.8681451,74.4048333 62.0512762,82.1481667" id="Stroke-9" stroke="#1B1B1B" stroke-width="0.572" fill="none" stroke-linecap="round" stroke-linejoin="round"></path>
                        <path d="M103.655128,49.4878333 L105.953021,54.3511667 L128.111636,49.3195 L122.856931,47.5728333 C120.960046,47.0195 118.592267,47.5628333 116.627161,47.7545 L103.655128,49.4878333 Z" id="Fill-11" stroke="none" fill="#1B1B1B" fill-rule="evenodd"></path>
                        <path d="M97.0692754,70.9688333 L95.0725541,85.7555 C95.0109885,86.2155 95.0392754,86.6688333 95.1457672,87.0938333 C95.5650787,88.7671667 97.2872508,89.7738333 98.9944475,89.5588333 L102.668415,89.0938333" id="Stroke-13" stroke="#1B1B1B" stroke-width="1.082" fill="none" stroke-linecap="round" stroke-linejoin="round"></path>
                        <path d="M85.6370475,68.1791667 C85.6370475,70.1491667 84.0429984,71.7475 82.0745639,71.7475 C80.1077934,71.7475 78.5137443,70.1491667 78.5137443,68.1791667 C78.5137443,66.2091667 80.1077934,64.6108333 82.0745639,64.6108333 C84.0429984,64.6108333 85.6370475,66.2091667 85.6370475,68.1791667" id="Fill-15" stroke="none" fill="#1B1B1B" fill-rule="evenodd"></path>
                        <path d="M118.829544,68.1791667 C118.829544,70.1491667 117.235495,71.7475 115.267061,71.7475 C113.30029,71.7475 111.706241,70.1491667 111.706241,68.1791667 C111.706241,66.2091667 113.30029,64.6108333 115.267061,64.6108333 C117.235495,64.6108333 118.829544,66.2091667 118.829544,68.1791667" id="Fill-17" stroke="none" fill="#1B1B1B" fill-rule="evenodd"></path>
                        <path d="M89.5223344,97.4045 C89.5223344,97.4045 94.0066377,100.5395 99.4393836,100.5395 C104.873793,100.5395 108.62763,97.4045 108.62763,97.4045" id="Stroke-19" stroke="#1B1B1B" stroke-width="1.082" fill="none" stroke-linecap="round" stroke-linejoin="round"></path>
                        <path d="M93.5074574,69.1101667 C93.5074574,77.3735 86.818441,84.0735 78.5686541,84.0735 C70.3172033,84.0735 63.6298508,77.3735 63.6298508,69.1101667 C63.6298508,60.8468333 70.3172033,54.1468333 78.5686541,54.1468333 C86.818441,54.1468333 93.5074574,60.8468333 93.5074574,69.1101667 Z" id="Stroke-21" stroke="#1B1B1B" stroke-width="1" fill="none" stroke-linecap="round" stroke-linejoin="round"></path>
                        <path d="M130.20653,69.1101667 C130.20653,77.3735 123.517513,84.0735 115.267726,84.0735 C107.016275,84.0735 100.328923,77.3735 100.328923,69.1101667 C100.328923,60.8468333 107.016275,54.1468333 115.267726,54.1468333 C123.517513,54.1468333 130.20653,60.8468333 130.20653,69.1101667 Z" id="Stroke-23" stroke="#1B1B1B" stroke-width="1" fill="none" stroke-linecap="round" stroke-linejoin="round"></path>
                        <path d="M93.5074574,69.1101667 C93.5074574,69.1101667 97.044982,65.8018333 100.329589,69.1101667" id="Stroke-25" stroke="#1B1B1B" stroke-width="0.535" fill="none" stroke-linecap="round" stroke-linejoin="round"></path>
                        <path d="M63.6499844,68.3753333 L58.9244107,69.802" id="Stroke-27" stroke="#1B1B1B" stroke-width="0.535" fill="none" stroke-linecap="round" stroke-linejoin="round"></path>
                        <path d="M130.20653,69.1101667 L136.684226,69.8035" id="Stroke-29" stroke="#1B1B1B" stroke-width="0.535" fill="none" stroke-linecap="round" stroke-linejoin="round"></path>
                        <path d="M74.9880336,115.927333 L75.3557631,141.699 C75.3973615,144.549 74.3024926,147.304 72.2724926,149.300667 C67.9445992,153.554 59.119091,160.675667 45.6262467,164.437333 L103.784083,182.729 L155.356066,164.437333 C155.356066,164.437333 136.831484,158.832333 127.65655,151.952333 C124.50173,149.587333 122.732968,145.795667 122.717993,141.849 L122.608173,114.695667" id="Stroke-31" stroke="#1B1B1B" stroke-width="1.143" fill="none" stroke-linecap="round" stroke-linejoin="round"></path>
                        <path d="M74.3226262,116.404333 C74.3226262,116.404333 80.3860033,133.754333 92.877159,140.884333 C101.947266,146.059333 113.679667,144.051 119.836225,135.606 C122.906184,131.394333 122.60002,123.534333 122.60002,114.419333 C122.60002,114.419333 115.242102,129.271 100.328257,129.891 C85.416077,130.509333 74.3226262,116.404333 74.3226262,116.404333" id="Fill-33" stroke="none" fill="#1B1B1B" fill-rule="evenodd"></path>
                        <g id="编组" stroke="none" stroke-width="1" fill="none" fill-rule="evenodd" transform="translate(0.000000, 159.006667)">
                            <mask id="mask-4" fill="white">
                                <use xlink:href="#path-3"></use>
                            </mask>
                            <g id="Clip-36"></g>
                            <path d="M53.6843484,0.821333333 C53.6843484,0.821333333 92.1661598,30.8946667 146.798119,0.821333333 C146.798119,0.821333333 172.926881,6.46466667 187.898963,29.368 C187.898963,29.368 201.360193,50.3813333 202.147234,59.9996667 L-0.000831967213,59.9996667 C-0.000831967213,59.9996667 10.4470123,12.7796667 53.6843484,0.821333333" id="Fill-35" fill="#1B1B1B" mask="url(#mask-4)"></path>
                        </g>
                        <path d="M59.6592041,61.143 C59.6592041,61.143 60.2365893,39.3746667 66.8274336,30.2263333 C73.4182779,21.0763333 90.0775893,24.4413333 101.690188,25.9196667 C113.301122,27.398 123.617516,24.2363333 128.21663,27.1563333 C133.176819,30.3063333 136.225147,54.9763333 136.063745,59.803 C136.063745,59.803 151.067442,33.6396667 139.263491,4.07966667 C139.263491,4.07966667 130.494557,12.023 103.984753,4.07966667 C77.47495,-3.86366667 65.4863025,0.0146666655 65.6709992,13.7796667 C65.6709992,13.7796667 49.8469828,9.81966667 51.6723189,27.548 C53.4976549,45.278 59.6592041,61.143 59.6592041,61.143" id="Fill-37" stroke="none" fill="#1B1B1B" fill-rule="evenodd"></path>
                        <path d="M91.5899393,49.7653333 L89.2920459,54.627 L67.1334311,49.597 L72.3881361,47.8503333 C74.2850213,47.297 76.6528,47.8403333 78.6179066,48.0303333 L91.5899393,49.7653333 Z" id="Fill-39" stroke="none" fill="#1B1B1B" fill-rule="evenodd"></path>
                    </g>
                </g>
            </g>
        </g>
    </g>
</svg>