<?xml version="1.0" encoding="UTF-8"?>
<svg width="16px" height="13px" viewBox="0 0 16 13" version="1.1" xmlns="http://www.w3.org/2000/svg" xmlns:xlink="http://www.w3.org/1999/xlink">
    <!-- Generator: Sketch 54.1 (76490) - https://sketchapp.com -->
    <title>Twitter</title>
    <desc>Created with Sketch.</desc>
    <g id="Page-1" stroke="none" stroke-width="1" fill="none" fill-rule="evenodd">
        <g id="main" transform="translate(-1528.000000, -558.000000)" fill="#000000">
            <g id="编组-12" transform="translate(1282.000000, 552.000000)">
                <g id="Social" transform="translate(199.000000, 4.000000)">
                    <path d="M61.1146017,4.056004 C61.7923285,3.64926066 62.3128603,3.00664333 62.557595,2.24051718 C61.9231674,2.61661547 61.2209672,2.88963497 60.4726438,3.03635974 C59.8739852,2.3983856 59.021179,2 58.0770679,2 C56.2641487,2 54.7938581,3.46910494 54.7938581,5.28180584 C54.7938581,5.53996714 54.8239793,5.7897707 54.8795152,6.03028788 C52.1516649,5.89377813 49.7334981,4.58625616 48.1144841,2.60082863 C47.8311566,3.08557754 47.6701965,3.64926066 47.6701965,4.25101793 C47.6701965,5.38952782 48.2500294,6.39431388 49.130133,6.98214158 C48.5917167,6.9654261 48.0853042,6.8177727 47.6438405,6.57168369 L47.6438405,6.61347239 C47.6438405,8.20330024 48.7743264,9.52939496 50.2766208,9.83120223 C50.0008236,9.90642189 49.7118485,9.94635331 49.4115778,9.94635331 C49.2007295,9.94635331 48.9945876,9.92592328 48.7940934,9.88692049 C49.2120249,11.1907279 50.4244029,12.1397957 51.8608072,12.1667262 C50.7369102,13.0461462 49.3212143,13.5708265 47.783151,13.5708265 C47.5186493,13.5708265 47.2569714,13.5559683 47,13.5253232 C48.4524062,14.4567469 50.1777856,15 52.0321214,15 C58.0695376,15 61.3715731,9.99928566 61.3715731,5.66254732 C61.3715731,5.51953711 61.367808,5.37931281 61.3621603,5.23815987 C62.0031768,4.77569826 62.5604189,4.19715694 63,3.53968141 C62.4116955,3.79969998 61.7782092,3.97614115 61.1146017,4.056004 Z" id="Twitter"></path>
                </g>
            </g>
        </g>
    </g>
</svg>